<?xml version="1.0" standalone="no"?>
<!DOCTYPE svg PUBLIC "-//W3C//DTD SVG 20010904//EN"
 "http://www.w3.org/TR/2001/REC-SVG-20010904/DTD/svg10.dtd">
<svg version="1.0" xmlns="http://www.w3.org/2000/svg"
 width="2000.000000pt" height="2000.000000pt" viewBox="0 0 2000.000000 2000.000000"
 preserveAspectRatio="xMidYMid meet">

<g transform="translate(0.000000,2000.000000) scale(0.100000,-0.100000)"
fill="#000000" stroke="none">
<path d="M0 19516 l0 -484 33 -13 c30 -12 477 -208 522 -229 11 -5 99 -44 195
-86 96 -42 209 -91 250 -109 41 -18 226 -99 410 -180 184 -82 461 -204 615
-272 154 -69 285 -126 290 -127 6 -2 30 -12 55 -23 100 -45 392 -173 495 -218
61 -26 133 -58 160 -70 28 -13 109 -48 180 -80 129 -56 341 -150 735 -323 113
-49 284 -125 380 -167 96 -42 209 -92 250 -110 41 -18 152 -67 245 -108 229
-100 682 -300 1002 -441 144 -63 290 -127 325 -142 35 -14 126 -54 203 -89 77
-35 176 -79 220 -98 248 -108 688 -302 950 -417 349 -154 490 -216 710 -312
88 -38 221 -97 295 -131 74 -33 205 -90 290 -127 173 -75 551 -241 620 -272
178 -81 884 -388 892 -388 7 0 9 120 7 353 l-4 352 627 3 628 2 2 853 3 852
82 3 83 3 2 -853 3 -853 2048 -3 2047 -2 0 855 0 855 85 0 85 0 0 -857 0 -858
522 3 523 2 -3 -1592 -3 -1593 57 -60 c371 -390 689 -930 919 -1561 87 -236
215 -660 215 -711 0 -10 -105 -13 -541 -13 -340 0 -539 -4 -537 -10 3 -8 202
-279 458 -624 l105 -141 1133 -3 1132 -2 0 5550 0 5550 -10000 0 -10000 0 0
-484z m3379 -1142 c89 -19 155 -48 181 -81 20 -26 18 -46 -9 -77 -97 -112
-631 -123 -780 -16 -54 39 -58 66 -17 105 87 82 396 116 625 69z m9646 -909
c162 -34 220 -94 146 -152 -36 -28 -157 -56 -267 -61 -324 -14 -537 101 -339
184 102 42 327 57 460 29z m5635 -564 c63 -20 110 -50 110 -72 0 -68 -170
-116 -375 -106 -244 12 -351 92 -215 160 30 15 82 31 115 37 95 14 289 5 365
-19z m-12026 -121 c110 -53 38 -117 -154 -135 -129 -13 -307 27 -324 72 -9 21
28 59 70 73 98 33 333 27 408 -10z m1965 -975 c41 -21 40 -50 -1 -71 -63 -33
-260 -27 -305 9 -20 15 -15 45 7 57 60 32 241 35 299 5z m4393 -2 c78 -45 25
-84 -122 -91 -76 -3 -105 0 -145 15 -83 31 -68 73 32 94 65 14 198 4 235 -18z
m4391 2 c80 -38 26 -84 -109 -93 -93 -5 -174 10 -200 39 -16 18 -16 21 -2 36
44 43 235 55 311 18z m-7338 -679 c77 -32 28 -70 -90 -71 -88 0 -140 20 -129
50 13 33 157 47 219 21z"/>
<path d="M1300 17237 l0 -114 113 -41 c61 -22 184 -66 272 -97 155 -55 282
-100 945 -335 173 -62 383 -136 465 -165 83 -29 227 -80 320 -113 275 -98 639
-227 795 -282 80 -28 157 -55 173 -61 l27 -11 0 -2763 0 -2762 -162 -7 c-179
-8 -623 -43 -651 -52 -38 -12 -2 -21 130 -34 76 -7 167 -16 203 -19 l65 -6
-88 -28 c-135 -43 -163 -86 -76 -118 51 -19 247 -49 321 -49 52 0 61 -9 26
-25 -25 -11 -35 -42 -19 -58 12 -12 67 -18 94 -10 29 8 19 65 -13 74 -16 5 3
8 53 10 42 1 85 3 95 3 15 1 17 -9 17 -69 l0 -70 -351 -1 -350 -2 -110 -36
c-131 -45 -329 -138 -414 -196 l-61 -42 -81 11 c-116 16 -114 16 -132 -29 -24
-60 -21 -132 9 -190 13 -27 29 -51 35 -55 10 -6 49 17 201 119 96 65 318 174
454 224 199 73 432 126 677 157 67 8 124 15 125 15 2 0 2 -532 1 -1182 l-3
-1182 -115 -34 c-63 -19 -146 -43 -184 -54 -83 -25 -124 -59 -133 -110 -9 -58
1 -79 93 -194 114 -143 224 -313 290 -448 l54 -109 0 -278 c0 -213 3 -278 13
-282 6 -2 -26 -22 -73 -44 -103 -49 -662 -315 -815 -388 -183 -87 -495 -235
-580 -275 -44 -21 -233 -111 -420 -200 -187 -89 -457 -218 -600 -285 -340
-161 -607 -289 -622 -298 -14 -9 -19 -232 -6 -225 49 23 433 213 928 458 336
166 759 376 940 465 182 89 563 278 849 419 285 141 522 256 527 256 5 0 9
-10 9 -22 0 -32 54 -241 81 -313 20 -52 23 -87 28 -265 7 -221 10 -236 68
-294 46 -47 105 -68 181 -65 l67 3 85 -88 c288 -298 716 -524 1265 -669 l90
-24 3 -191 c1 -106 3 -192 5 -192 1 0 54 -9 117 -20 63 -11 118 -20 123 -20 4
0 7 81 7 181 l0 181 33 -4 c150 -22 497 -82 560 -98 135 -34 298 -130 448
-262 73 -63 120 -88 172 -88 53 0 117 40 172 106 319 387 661 781 812 935 l74
75 -23 30 c-12 16 -25 31 -28 34 -3 3 -21 25 -40 50 -19 25 -38 47 -41 50 -4
3 -63 2 -131 -2 -67 -3 -168 -7 -222 -7 l-100 -1 46 29 c184 117 451 338 593
491 l30 33 -50 -37 c-232 -169 -494 -325 -790 -470 -313 -154 -540 -235 -767
-272 l-106 -17 -163 56 c-189 64 -339 126 -491 203 -93 47 -111 53 -128 42
-17 -11 -32 -6 -115 37 -52 28 -94 53 -92 56 1 4 70 78 152 165 150 159 195
207 401 429 60 66 200 216 310 333 273 292 314 340 314 363 0 33 42 22 98 -27
l53 -46 67 6 c37 3 169 6 293 6 l226 0 3 208 c9 543 6 494 38 513 15 8 52 32
83 52 l57 36 23 -57 c12 -31 39 -93 60 -137 20 -44 74 -172 119 -285 46 -113
86 -208 89 -212 4 -4 65 16 136 45 151 61 154 65 112 171 -14 34 -42 136 -62
227 -20 90 -54 218 -76 284 -22 66 -41 135 -42 153 -2 37 -39 11 533 371 69
43 204 128 301 189 97 61 183 114 191 117 24 9 61 -205 52 -305 -6 -76 -5 -79
20 -105 23 -23 26 -34 26 -95 0 -46 5 -73 14 -83 10 -9 54 -16 143 -21 153 -9
190 -8 214 5 31 16 22 27 -48 63 -38 19 -83 46 -102 60 -34 25 -34 25 -32 103
2 70 -31 439 -44 504 -5 24 3 32 115 102 l120 76 0 -344 c0 -189 3 -350 6
-359 9 -24 55 -20 61 5 5 19 7 19 37 -9 43 -41 68 -52 115 -52 35 0 41 -3 41
-21 0 -36 31 -88 65 -109 86 -53 205 10 205 110 0 19 6 20 147 20 138 0 149 1
189 25 28 16 49 39 63 68 20 42 21 55 19 478 l-2 434 -6 -415 c-6 -461 -3
-446 -75 -490 -31 -19 -49 -20 -361 -20 -318 0 -330 1 -364 21 -19 12 -40 29
-47 38 -10 12 -12 194 -13 803 l0 786 30 31 c34 33 84 51 146 51 l41 0 19 62
c61 200 249 741 261 754 17 17 143 20 143 3 0 -5 -38 -126 -84 -267 -47 -141
-106 -322 -132 -402 -25 -80 -48 -147 -49 -150 -2 -3 78 -4 177 -2 164 3 184
1 222 -18 28 -13 50 -34 66 -63 24 -41 25 -45 21 -257 l-3 -215 129 5 129 5
164 122 c91 68 176 131 190 142 l25 20 -300 0 -300 0 0 26 0 26 511 -1 c280 0
513 3 517 7 4 4 -40 24 -98 45 -183 65 -259 132 -284 249 -13 59 -14 165 -2
114 12 -47 56 -126 96 -172 65 -76 169 -134 337 -187 l88 -28 -7 -40 -6 -41
32 5 c35 5 37 3 16 -19 -21 -20 -14 -38 14 -37 11 0 21 0 21 -1 0 -1 -5 -16
-11 -34 -10 -28 -8 -36 15 -70 15 -21 33 -68 41 -107 27 -129 69 -229 131
-315 40 -54 41 -59 14 -59 -25 0 -25 -7 -1 -62 24 -56 41 -70 133 -113 85 -39
96 -41 122 -22 32 23 11 79 -61 167 l-65 80 -35 -15 c-20 -8 -39 -15 -44 -15
-13 0 -88 115 -115 176 -13 30 -36 103 -51 162 -14 59 -35 119 -46 134 -14 19
-18 34 -13 55 21 82 20 86 -3 73 -21 -11 -22 -10 -12 9 19 35 14 44 -25 38
-31 -5 -35 -4 -29 11 23 56 29 52 -115 97 -149 48 -270 119 -322 189 -44 59
-76 133 -84 193 -6 50 -5 54 26 83 48 45 116 62 268 67 121 5 132 7 132 24 0
16 -8 19 -47 20 -87 3 -147 -2 -218 -18 -85 -19 -123 -36 -151 -70 l-22 -25
-18 53 c-28 80 -25 282 5 404 12 50 24 101 27 113 3 13 -4 43 -15 65 -34 73
-45 177 -32 318 13 142 33 224 65 264 13 16 47 37 82 50 242 91 296 116 336
156 38 37 90 53 155 46 73 -8 132 -55 170 -137 28 -60 43 -75 43 -42 0 14 2
15 10 2 5 -8 10 -27 10 -42 0 -15 14 -50 30 -76 47 -77 37 -120 -35 -160 -19
-11 -18 -11 7 -12 29 0 58 23 58 46 0 18 2 18 47 -5 34 -17 54 -19 191 -14
l153 6 65 129 c112 223 234 433 338 580 l41 57 711 1 711 0 -2 65 c-2 36 1 68
6 71 46 28 -12 29 -2368 27 l-2378 -3 0 -77 0 -78 389 -3 c364 -2 388 -3 381
-20 -5 -14 -326 -885 -421 -1143 l-25 -66 -142 -6 c-78 -4 -205 -7 -282 -7
l-140 -1 55 -50 55 -51 195 7 c107 4 200 8 205 9 15 2 12 -6 -87 -274 -49
-135 -91 -256 -93 -270 -4 -29 -42 -120 -50 -120 -3 0 -2 83 1 185 l7 184 -26
12 c-21 9 -30 9 -42 -1 -13 -11 -15 -55 -15 -307 0 -265 -2 -297 -18 -331 -11
-20 -32 -74 -48 -119 l-28 -82 -60 -25 c-33 -14 -60 -25 -61 -23 0 1 -7 20
-14 42 -8 22 -60 110 -116 195 -94 142 -160 245 -297 464 -63 99 -78 141 -86
241 l-7 80 -30 -50 c-24 -42 -29 -61 -30 -116 0 -65 3 -72 109 -287 61 -122
108 -223 105 -226 -2 -2 -94 -9 -204 -15 -267 -15 -369 -23 -374 -27 -6 -6
119 -122 149 -138 42 -23 254 -158 277 -176 21 -17 21 -17 -90 -111 -144 -122
-195 -159 -223 -159 -12 0 -29 -7 -37 -15 -10 -10 -25 -13 -45 -9 -29 6 -70
-9 -84 -30 -4 -6 -8 -31 -8 -56 l0 -45 -152 -66 -153 -66 -3 41 c-2 35 22 204
69 481 15 84 4 301 -21 419 -11 55 -22 101 -24 103 -2 2 -17 -8 -32 -23 -16
-14 -60 -42 -98 -61 -137 -69 -298 -104 -571 -124 -88 -6 -161 -12 -161 -13
-1 0 -7 -73 -13 -161 -7 -88 -16 -216 -21 -285 -34 -438 -44 -708 -44 -1165 0
-470 8 -657 39 -955 20 -182 33 -294 37 -306 2 -5 -1 -11 -7 -14 -12 -6 -19
32 -44 245 -40 335 -45 466 -46 1015 0 549 11 819 55 1375 10 132 17 242 15
246 -3 5 -136 -8 -142 -14 -1 -1 -6 -102 -12 -225 -6 -123 -15 -312 -21 -420
-5 -108 -11 -291 -13 -407 l-4 -209 -65 -31 c-36 -16 -101 -45 -145 -63 l-79
-33 -16 -57 c-30 -107 -31 -140 -3 -113 15 13 305 144 310 140 2 -3 5 -52 6
-109 l3 -105 -95 -47 c-187 -95 -472 -228 -485 -228 -8 0 -20 -16 -28 -35
l-15 -36 -133 67 c-73 36 -134 67 -136 69 -1 1 5 31 14 66 16 60 15 70 -1 157
-20 107 -16 143 24 203 l29 43 -20 25 -20 26 50 3 c76 4 74 0 152 335 24 104
36 140 51 148 27 14 303 10 323 -4 14 -11 11 -31 -24 -177 -22 -91 -40 -172
-40 -181 0 -9 13 -30 28 -47 l28 -30 50 26 c73 40 99 93 98 197 -1 69 -8 101
-53 228 -28 81 -61 167 -72 190 -27 53 -137 217 -254 377 -150 205 -335 471
-335 481 0 5 4 9 9 9 5 0 172 33 372 74 200 41 366 73 370 70 4 -2 10 -47 14
-100 7 -95 8 -97 49 -139 39 -41 44 -43 116 -50 72 -7 81 -5 230 44 141 46
242 69 508 116 223 39 278 93 312 307 l13 77 53 11 c56 12 60 15 45 39 -6 10
-21 12 -54 7 l-45 -7 -16 87 c-19 102 -18 104 60 104 l51 0 7 38 c3 20 9 47
12 60 6 22 5 22 -79 22 l-86 0 -11 58 c-14 74 -46 211 -76 335 l-24 98 0 1844
c0 1198 3 1845 10 1845 5 0 27 -6 47 -14 44 -17 231 -83 763 -272 212 -75 462
-163 555 -197 94 -33 194 -62 223 -65 l52 -4 0 33 c0 32 -3 35 -52 53 -29 10
-215 78 -413 151 -198 74 -551 204 -785 290 -234 86 -544 201 -690 255 -428
159 -1065 395 -1690 625 -63 23 -200 74 -305 113 -250 92 -449 166 -560 207
-49 18 -211 78 -360 133 -148 55 -522 193 -830 307 -308 114 -636 235 -730
270 -93 35 -361 134 -595 220 -234 86 -544 201 -690 255 -301 112 -785 291
-1095 405 -115 43 -216 80 -222 82 -10 4 -13 -22 -13 -110z m3332 -1296 c13
-6 93 -35 178 -65 85 -30 304 -107 485 -171 182 -64 470 -166 640 -227 171
-60 346 -122 390 -138 142 -50 691 -245 1030 -365 182 -64 501 -177 710 -251
209 -74 391 -140 405 -147 l25 -13 2 -1647 c2 -906 1 -1647 -1 -1647 -2 0 -39
62 -82 137 -67 117 -94 153 -179 239 -83 84 -110 105 -158 122 -32 12 -69 22
-84 22 -33 0 -110 79 -115 117 -2 21 -10 29 -35 35 -20 5 -34 17 -39 31 -19
64 -81 74 -206 34 -99 -32 -153 -68 -179 -119 -12 -24 -30 -54 -40 -67 -11
-13 -19 -36 -19 -50 0 -15 -7 -36 -15 -49 -12 -16 -14 -34 -9 -71 l6 -49 -62
-33 c-106 -56 -310 -255 -475 -463 -33 -42 -63 -75 -67 -76 -6 0 17 114 47
229 9 35 14 74 11 85 -3 13 -32 35 -75 59 -79 42 -144 50 -180 20 -28 -25 -69
-111 -136 -293 -32 -85 -82 -207 -111 -271 -110 -240 -137 -384 -95 -504 28
-79 27 -85 -11 -85 -25 0 -5 -12 87 -49 66 -26 152 -64 192 -83 l72 -35 408
17 c224 9 411 15 416 13 4 -2 7 -56 7 -119 l0 -114 90 0 90 0 0 66 c0 41 4 63
10 59 6 -3 10 -20 10 -38 0 -17 5 -68 12 -114 7 -45 10 -85 7 -88 -3 -3 -140
-30 -305 -60 -164 -30 -345 -63 -402 -73 -62 -12 -105 -16 -108 -10 -4 5 -16
7 -28 5 -16 -4 -31 7 -66 48 l-45 54 -50 -48 c-78 -74 -142 -132 -165 -148
-17 -12 -24 -12 -36 -2 -11 9 -18 9 -26 1 -16 -16 19 -93 39 -85 19 8 58 -28
41 -38 -16 -10 -5 -41 79 -218 36 -75 75 -161 88 -192 33 -83 117 -350 111
-356 -15 -15 -355 71 -486 123 -34 13 -69 17 -139 16 -51 -2 -98 -5 -102 -8
-5 -3 18 -24 52 -46 79 -53 148 -124 185 -190 26 -47 29 -62 29 -138 -1 -104
-23 -158 -90 -226 -127 -126 -344 -150 -527 -58 -128 64 -252 175 -363 322
-69 91 -75 114 -46 164 12 21 18 38 13 38 -16 0 -205 -57 -289 -87 l-83 -30 0
636 c1 577 2 641 18 686 24 71 68 121 132 153 50 24 67 27 188 30 l132 4 0 69
c0 77 -5 73 98 83 67 7 172 36 172 48 0 14 -491 -1 -573 -18 -37 -7 -89 -23
-114 -36 -68 -33 -155 -118 -191 -186 -62 -115 -62 -116 -62 -893 0 -698 0
-707 -21 -755 -12 -26 -27 -79 -34 -118 -11 -60 -13 99 -14 1017 -1 598 -1
1090 -2 1095 0 4 19 14 43 22 38 14 43 19 43 45 0 29 -5 33 -72 51 -10 3 -13
559 -13 2739 0 1504 2 2735 5 2735 2 0 14 -4 27 -9z m6808 -4354 c0 -2 -26
-84 -59 -183 -50 -154 -110 -339 -300 -924 l-37 -115 -77 -3 -77 -3 205 606
c112 333 207 610 210 616 6 8 135 14 135 6z m-4116 -923 l47 -85 -4 -142 -5
-142 -258 -8 c-143 -4 -302 -6 -355 -5 l-97 3 116 100 c63 55 149 127 191 159
76 60 298 206 312 206 4 0 28 -38 53 -86z m2816 -1668 c-5 -15 -10 -60 -10
-100 l0 -73 -50 -23 c-27 -13 -52 -22 -53 -19 -10 11 6 199 17 200 6 0 31 10
56 23 25 12 46 22 48 21 1 -1 -2 -14 -8 -29z m150 -313 l0 -178 -87 -50 c-48
-27 -102 -60 -121 -73 -19 -13 -36 -21 -38 -19 -8 7 -24 195 -24 277 l0 85
133 67 c72 37 133 67 135 67 1 1 2 -79 2 -176z m-571 10 c1 -44 -3 -55 -21
-67 -13 -8 -122 -60 -243 -116 -121 -56 -228 -106 -237 -111 -16 -9 -17 -5
-12 48 4 32 10 68 15 79 5 15 63 50 186 111 98 50 205 106 238 126 l60 35 6
-26 c4 -15 7 -51 8 -79z m11 -170 c0 -38 48 -270 61 -295 8 -14 -19 -34 -163
-121 -529 -319 -844 -510 -856 -519 -7 -6 -15 -9 -18 -6 -11 12 -24 185 -24
340 l0 167 493 244 c321 159 495 240 499 233 4 -6 8 -26 8 -43z m-637 -36 c9
-24 30 -58 46 -77 l28 -34 -201 -94 c-111 -51 -207 -96 -213 -99 -15 -6 -17
33 -6 141 l6 69 71 31 c39 17 105 47 146 68 41 20 82 37 90 37 9 1 23 -17 33
-42z m-772 -1002 c27 -66 49 -124 49 -130 -1 -12 -102 -75 -120 -75 -10 0 -11
30 -5 138 4 75 8 149 8 165 1 15 5 26 10 24 5 -1 31 -56 58 -122z m-588 3 c4
-51 14 -158 23 -238 9 -80 17 -172 18 -204 l1 -59 -179 -109 c-99 -59 -183
-108 -186 -108 -17 0 -244 522 -237 543 3 11 539 276 548 271 3 -2 9 -45 12
-96z m-3547 -120 c228 -239 344 -510 485 -1138 92 -409 144 -585 225 -758 195
-419 623 -762 1169 -935 169 -54 240 -70 650 -152 209 -42 427 -87 485 -101
279 -69 477 -171 646 -334 61 -59 75 -88 47 -97 -7 -3 -47 29 -90 69 -125 116
-255 196 -411 252 -134 48 -246 75 -623 150 -437 87 -554 114 -706 162 -557
173 -1009 531 -1207 955 -87 187 -142 371 -236 794 -129 577 -247 859 -454
1082 -36 39 -66 78 -66 87 0 31 36 16 86 -36z m3669 -907 c-9 -9 -134 23 -190
48 -76 35 -177 126 -155 141 8 5 78 49 155 98 l140 88 27 -185 c15 -102 25
-188 23 -190z"/>
<path d="M7640 12116 c0 -26 -97 -51 -200 -51 -52 0 -112 4 -132 8 -31 7 -38
5 -38 -8 0 -62 289 -72 354 -12 26 23 44 77 26 77 -5 0 -10 -6 -10 -14z"/>
<path d="M6768 12034 c-5 -4 -8 -67 -8 -141 0 -148 -4 -142 73 -119 43 13 47
13 47 -2 0 -26 -11 -37 -57 -61 -33 -16 -43 -27 -43 -46 0 -13 5 -27 10 -30
15 -9 12 -62 -5 -96 -9 -16 -14 -33 -11 -37 4 -8 166 3 214 13 l22 5 0 249 c0
203 -3 250 -14 254 -25 10 -221 19 -228 11z"/>
<path d="M5318 10603 c-21 -5 -23 -24 -6 -41 15 -15 98 -16 98 -2 0 10 -59 51
-70 49 -3 -1 -13 -3 -22 -6z"/>
<path d="M5550 10416 c0 -58 2 -106 5 -106 21 0 108 55 129 82 l25 33 -20 22
c-12 12 -35 27 -52 34 -18 7 -34 16 -37 20 -3 3 -15 9 -27 13 -23 7 -23 7 -23
-98z"/>
<path d="M6170 9736 c-55 -19 -126 -72 -164 -122 l-35 -45 -23 43 c-18 36 -23
39 -26 22 -2 -12 8 -44 21 -70 14 -27 45 -90 71 -141 25 -51 46 -101 46 -112
0 -59 -151 -325 -171 -303 -7 7 -82 241 -94 294 -6 23 -35 49 -35 31 0 -16
113 -363 130 -400 11 -23 28 -46 37 -51 35 -19 100 -23 149 -11 42 11 62 26
139 103 107 108 172 192 191 243 7 21 13 71 14 110 0 65 -2 74 -23 88 -21 13
-29 13 -78 0 -30 -8 -65 -17 -79 -21 -14 -3 -54 -15 -89 -25 -77 -23 -77 -23
-84 -1 -3 9 -23 54 -45 99 l-40 81 58 31 c68 36 70 37 63 12 -8 -30 24 -33 75
-7 26 13 73 29 105 37 35 7 62 19 68 30 5 10 18 20 28 24 11 3 21 11 24 18 4
10 -11 11 -66 5 -39 -4 -76 -9 -84 -12 -9 -4 -8 2 4 19 10 13 21 25 26 25 4 0
7 5 7 10 0 14 -78 12 -120 -4z"/>
<path d="M5679 9667 c-44 -33 -50 -100 -19 -199 23 -75 24 -78 7 -78 -17 0
-170 -90 -164 -97 5 -4 127 32 195 59 33 13 33 13 27 63 -4 27 -15 78 -27 113
-20 62 -19 69 7 135 8 20 -3 22 -26 4z"/>
<path d="M6216 9558 c-22 -31 -20 -58 3 -58 11 0 23 12 31 29 20 48 -6 70 -34
29z"/>
<path d="M5155 9334 c-165 -32 -160 -31 -172 -56 -13 -30 0 -66 28 -77 21 -7
332 48 345 62 4 3 -2 26 -11 51 -21 55 -17 54 -190 20z"/>
<path d="M5520 9081 c0 -6 16 -43 35 -81 36 -72 106 -149 177 -198 51 -33 153
-79 197 -88 l31 -7 -19 46 c-11 26 -23 62 -26 81 -6 31 -11 35 -53 46 -83 20
-207 88 -276 152 -36 33 -66 55 -66 49z"/>
<path d="M5980 8674 c0 -3 28 -43 61 -87 68 -90 86 -126 92 -182 6 -54 -8 -96
-45 -132 -90 -87 -216 -84 -403 9 -95 48 -127 72 -263 196 -70 65 -105 104
-110 126 l-8 31 -13 -23 c-21 -38 -4 -71 76 -154 118 -121 245 -202 397 -253
227 -76 430 23 430 210 0 101 -61 193 -164 245 -42 21 -50 24 -50 14z"/>
<path d="M10589 15047 c-56 -37 -59 -51 -59 -276 0 -196 1 -206 22 -237 13
-18 33 -38 46 -43 16 -8 962 -11 3098 -11 2640 0 3079 2 3103 14 57 30 63 59
59 293 l-3 213 -33 32 -32 33 -3084 3 -3083 2 -34 -23z m3821 -317 l0 -190
-1165 0 -1165 0 0 190 0 190 1165 0 1165 0 0 -190z m-3396 140 c13 -12 21 -38
24 -74 9 -110 -19 -166 -84 -166 -19 0 -44 4 -54 10 -59 32 -50 224 12 250 31
13 79 4 102 -20z m199 19 c30 -16 37 -28 37 -66 0 -20 -6 -36 -17 -41 -15 -9
-14 -12 5 -37 28 -36 28 -60 -3 -90 -18 -19 -35 -25 -65 -25 -30 0 -47 6 -65
25 -31 30 -31 54 -4 89 20 25 20 28 5 45 -53 59 33 139 107 100z m348 -15 c23
-21 24 -61 2 -86 -14 -16 -14 -20 -1 -35 51 -60 11 -123 -77 -123 -37 0 -75
28 -75 55 0 8 9 15 20 15 11 0 20 -7 20 -15 0 -19 48 -31 69 -18 38 24 20 83
-25 83 -15 0 -24 6 -24 15 0 8 9 15 19 15 43 0 61 72 21 85 -23 7 -50 -4 -50
-21 0 -8 -10 -14 -25 -14 -41 0 -24 44 25 63 24 10 81 -1 101 -19z m192 17
c39 -15 60 -73 54 -150 -4 -55 -9 -69 -32 -88 -25 -22 -67 -29 -100 -17 -27
11 -45 60 -45 126 0 72 14 107 50 125 30 15 41 16 73 4z m2956 -2 c30 -11 67
-60 54 -73 -12 -11 -43 -6 -43 7 0 8 -9 22 -20 32 -16 15 -26 17 -48 9 -49
-17 -67 -98 -38 -169 13 -31 19 -35 51 -35 28 0 38 5 47 25 13 29 48 34 48 7
0 -30 -36 -55 -88 -60 -41 -3 -53 0 -77 21 -25 21 -29 33 -33 91 -5 81 9 119
51 140 38 19 54 19 96 5z m259 -117 c23 -70 42 -131 42 -136 0 -4 -10 -6 -22
-4 -15 2 -24 11 -26 25 -4 27 -18 32 -75 26 -37 -4 -47 -9 -49 -27 -2 -13 -11
-22 -25 -24 -13 -2 -23 0 -23 4 0 5 56 171 85 252 2 6 15 12 27 12 21 0 28
-13 66 -128z m192 29 l55 -95 3 97 c3 96 3 97 27 97 l25 0 0 -136 0 -135 -27
3 c-23 2 -36 18 -77 91 -28 48 -54 87 -58 87 -4 0 -8 -40 -8 -90 0 -83 -1 -90
-20 -90 -19 0 -20 7 -20 136 0 134 0 135 22 132 17 -2 38 -28 78 -97z m309 88
c32 -11 51 -35 51 -63 0 -24 -34 -19 -45 6 -6 13 -23 27 -39 33 -25 8 -31 6
-52 -18 -19 -22 -24 -40 -24 -80 0 -74 17 -101 63 -105 31 -3 39 1 49 22 13
31 48 35 48 7 0 -47 -97 -79 -151 -51 -30 17 -49 64 -49 125 0 106 59 155 149
124z m271 -4 c0 -10 -16 -15 -62 -17 l-63 -3 0 -40 0 -40 55 -5 c70 -6 67 -24
-5 -28 l-55 -3 0 -44 0 -45 65 0 c51 0 65 -3 65 -15 0 -12 -16 -15 -87 -15
l-88 0 2 123 c0 67 2 128 2 135 2 19 171 17 171 -3z m90 -105 l0 -120 60 0
c47 0 60 -3 60 -15 0 -12 -16 -15 -80 -15 l-80 0 0 135 c0 128 1 135 20 135
19 0 20 -7 20 -120z m210 0 l0 -119 62 -3 c38 -2 63 -8 66 -15 3 -10 -18 -13
-82 -13 l-86 0 0 135 c0 128 1 135 20 135 19 0 20 -7 20 -120z m350 105 c0
-11 -16 -15 -67 -17 l-68 -3 0 -40 0 -40 58 -3 c42 -2 57 -7 57 -17 0 -12 -14
-15 -60 -15 l-60 0 0 -45 0 -45 70 0 c56 0 70 -3 70 -15 0 -12 -17 -15 -90
-15 l-90 0 0 135 0 135 90 0 c72 0 90 -3 90 -15z m165 1 c44 -19 65 -61 65
-132 0 -50 -3 -59 -34 -90 -32 -32 -38 -34 -100 -34 l-66 0 0 135 0 135 50 0
c28 0 66 -6 85 -14z m-5205 -236 c0 -15 -7 -20 -25 -20 -18 0 -25 5 -25 20 0
15 7 20 25 20 18 0 25 -5 25 -20z"/>
<path d="M10920 14851 c-14 -27 -13 -164 2 -179 17 -17 55 -15 62 4 11 29 7
169 -6 182 -18 18 -46 14 -58 -7z"/>
<path d="M11141 14852 c-23 -44 23 -92 57 -58 12 12 14 22 6 43 -12 34 -48 43
-63 15z"/>
<path d="M11141 14736 c-16 -20 -10 -56 12 -70 27 -17 52 4 52 45 0 29 -4 34
-26 37 -14 2 -31 -4 -38 -12z"/>
<path d="M11692 14858 c-15 -20 -22 -121 -11 -161 8 -29 15 -37 32 -37 13 0
28 5 35 12 15 15 16 152 2 179 -12 22 -43 25 -58 7z"/>
<path d="M14879 14780 l-16 -60 39 0 c21 0 38 1 38 3 0 9 -34 103 -39 109 -4
4 -14 -19 -22 -52z"/>
<path d="M16467 14863 c-2 -5 -3 -51 -3 -103 l1 -95 33 -3 c55 -5 72 18 72
100 0 55 -4 72 -20 88 -19 19 -75 28 -83 13z"/>
<path d="M10597 14398 c-16 -6 -35 -25 -47 -49 -18 -34 -20 -59 -20 -234 0
-218 5 -240 63 -275 32 -20 75 -20 3102 -20 2436 0 3075 3 3095 13 13 7 35 28
47 46 22 33 23 42 23 238 0 225 -5 250 -60 278 -26 13 -374 15 -3102 14 -2049
0 -3082 -4 -3101 -11z m3813 -308 l0 -190 -1165 0 -1165 0 0 190 0 190 1165 0
1165 0 0 -190z m-2654 164 c25 -12 36 -26 44 -53 33 -119 -18 -224 -99 -206
-48 10 -65 38 -69 116 -5 85 10 126 52 145 39 17 32 17 72 -2z m-747 -13 c25
-25 35 -78 28 -148 -6 -61 -25 -89 -66 -98 -67 -15 -111 36 -111 129 0 62 13
103 38 122 26 20 89 17 111 -5z m213 5 c10 -7 22 -25 28 -40 13 -36 13 -129
-1 -160 -24 -52 -139 -77 -139 -30 0 10 8 12 30 7 37 -7 70 18 70 53 0 21 -2
22 -24 13 -68 -31 -132 54 -94 124 6 12 18 27 27 34 21 16 82 16 103 -1z m336
-6 c28 -26 28 -60 2 -91 l-21 -23 21 -8 c11 -4 21 -15 22 -25 5 -64 -26 -98
-90 -98 -36 0 -48 5 -70 30 -25 29 -25 30 -4 33 11 2 30 -6 41 -17 25 -25 44
-26 65 -5 33 32 14 84 -31 84 -14 0 -23 6 -23 15 0 9 9 15 25 15 30 0 46 27
34 58 -10 27 -52 30 -71 4 -15 -22 -48 -25 -48 -5 0 49 105 73 148 33z m3176
-2 c24 -23 38 -56 24 -57 -28 -3 -36 2 -46 24 -9 20 -19 25 -46 25 -18 0 -39
-7 -47 -16 -20 -25 -24 -116 -5 -152 26 -51 88 -55 100 -7 4 16 13 23 26 22
24 -2 26 -29 3 -52 -45 -45 -117 -42 -157 6 -23 26 -26 40 -26 101 0 64 2 72
29 99 38 38 106 41 145 7z m235 -104 c23 -69 41 -130 41 -135 0 -5 -9 -9 -19
-9 -12 0 -23 11 -30 31 -10 29 -12 30 -63 27 -46 -3 -53 -6 -58 -28 -4 -16
-14 -26 -28 -28 -12 -2 -22 0 -22 4 0 5 19 66 42 136 40 122 44 128 69 128 26
0 29 -6 68 -126z m185 44 c25 -45 46 -85 46 -90 0 -4 5 -8 10 -8 6 0 10 37 10
90 0 90 0 90 25 90 l26 0 -3 -132 c-3 -124 -4 -133 -23 -136 -16 -2 -32 17
-75 92 -30 51 -58 92 -62 89 -5 -2 -8 -44 -8 -94 0 -82 -1 -89 -20 -89 -19 0
-20 7 -20 135 l0 135 24 0 c19 0 32 -15 70 -82z m340 61 c29 -23 34 -54 10
-63 -9 -4 -18 -5 -18 -4 -1 2 -7 15 -14 31 -9 22 -18 27 -46 27 -41 0 -56 -17
-63 -69 -13 -93 24 -153 82 -131 15 6 29 19 32 29 6 24 43 24 43 1 0 -51 -84
-83 -143 -55 -44 21 -57 50 -57 131 0 59 3 68 29 95 37 37 104 41 145 8z m246
6 c0 -12 -14 -15 -65 -15 l-65 0 0 -40 0 -40 55 0 c42 0 55 -3 55 -15 0 -12
-13 -15 -56 -15 l-55 0 3 -47 3 -48 63 -3 c47 -2 62 -7 62 -18 0 -12 -15 -14
-86 -12 l-85 3 0 90 c0 50 0 109 0 133 l1 42 85 0 c69 0 85 -3 85 -15z m92
-102 l3 -118 58 -5 c87 -8 75 -25 -20 -28 l-83 -3 0 136 c0 128 1 135 20 135
18 0 20 -8 22 -117z m210 0 l3 -118 63 -3 c44 -2 62 -7 59 -15 -2 -8 -33 -13
-85 -15 l-82 -3 0 136 c0 128 1 135 20 135 18 0 20 -8 22 -117z m346 105 c-3
-8 -29 -14 -71 -16 l-67 -3 0 -39 0 -40 60 0 c46 0 60 -3 60 -15 0 -10 -15
-15 -57 -17 l-58 -3 0 -45 0 -45 68 -3 c48 -2 67 -7 64 -15 -2 -8 -34 -13 -90
-15 l-87 -3 0 136 0 135 91 0 c68 0 90 -3 87 -12z m176 1 c14 -7 32 -26 41
-44 18 -40 20 -120 2 -155 -18 -37 -73 -61 -132 -58 l-50 3 -3 133 -3 132 60
0 c33 0 71 -5 85 -11z m-5216 -236 c-2 -10 -12 -18 -23 -18 -11 0 -21 8 -23
18 -3 13 3 17 23 17 20 0 26 -4 23 -17z"/>
<path d="M11682 14198 c-11 -43 -5 -147 9 -164 16 -20 47 -17 59 5 14 27 13
164 -2 179 -7 7 -22 12 -35 12 -17 0 -24 -8 -31 -32z"/>
<path d="M10916 14214 c-3 -9 -6 -49 -6 -89 0 -54 4 -78 16 -89 20 -20 38 -20
54 -1 16 19 14 163 -2 182 -15 18 -55 16 -62 -3z"/>
<path d="M11140 14215 c-17 -21 -15 -74 4 -93 9 -9 23 -12 40 -8 22 5 26 12
26 42 0 65 -38 97 -70 59z"/>
<path d="M14878 14145 c-8 -30 -13 -57 -10 -60 8 -8 60 -6 65 3 6 9 -25 112
-33 112 -4 0 -14 -25 -22 -55z"/>
<path d="M16466 14225 c-2 -6 -3 -54 -2 -106 l1 -94 38 1 c52 2 66 24 67 105
0 51 -4 69 -17 81 -23 20 -81 28 -87 13z"/>
<path d="M10577 13729 c-42 -32 -49 -75 -45 -297 l3 -204 33 -29 32 -29 3096
0 3097 0 33 36 34 35 0 210 c0 224 -5 250 -52 283 -20 14 -329 16 -3114 16
l-3091 0 -26 -21z m3833 -279 l0 -190 -1165 0 -1165 0 0 190 0 190 1165 0
1165 0 0 -190z m-3430 15 l0 -135 -25 0 -25 0 0 115 0 115 -25 0 c-15 0 -25 6
-25 14 0 15 22 22 73 25 l27 1 0 -135z m226 129 c38 -10 57 -61 52 -143 -3
-65 -7 -76 -31 -97 -56 -48 -128 -17 -143 60 -23 127 30 205 122 180z m348
-15 c30 -24 34 -63 9 -92 -17 -18 -17 -20 -1 -31 48 -35 18 -109 -49 -122 -42
-8 -98 17 -106 47 -7 26 27 25 53 -1 24 -24 43 -25 64 -4 32 31 5 91 -35 79
-14 -5 -19 -1 -19 14 0 16 6 21 25 21 31 0 50 32 35 60 -6 12 -21 20 -35 20
-14 0 -30 -9 -37 -20 -15 -23 -48 -27 -48 -6 0 23 50 56 85 56 18 0 44 -9 59
-21z m219 1 c30 -24 43 -85 32 -156 -13 -87 -83 -121 -142 -70 -27 23 -28 28
-28 111 0 83 1 88 28 111 34 29 76 31 110 4z m2967 -5 c26 -24 27 -65 1 -65
-12 0 -21 9 -25 25 -7 27 -41 41 -75 30 -43 -13 -54 -143 -16 -185 10 -11 28
-20 41 -20 23 0 54 23 54 41 0 5 9 9 20 9 44 0 6 -63 -46 -76 -14 -4 -43 -1
-65 5 -49 15 -69 51 -69 126 0 63 20 111 53 125 32 14 105 5 127 -15z m232
-110 c46 -134 46 -135 23 -135 -17 0 -26 8 -34 30 -9 28 -13 30 -61 30 -48 0
-52 -2 -61 -30 -7 -19 -18 -30 -30 -30 -10 0 -19 3 -19 7 0 4 19 65 42 135 40
119 44 128 68 128 23 0 28 -10 72 -135z m178 57 c25 -42 49 -86 55 -97 8 -15
11 4 13 78 3 96 3 97 27 97 l25 0 0 -135 0 -135 -24 0 c-20 0 -34 16 -77 90
-28 50 -56 93 -60 96 -5 3 -9 -38 -9 -90 0 -89 -1 -96 -20 -96 -19 0 -20 7
-20 135 0 133 0 135 23 135 17 0 32 -17 67 -78z m353 47 c9 -12 17 -30 17 -40
0 -26 -33 -24 -45 3 -24 51 -86 50 -104 -3 -22 -65 -6 -153 31 -164 30 -10 66
3 73 25 6 20 45 29 45 11 0 -36 -46 -71 -95 -71 -38 0 -79 24 -93 55 -7 14
-12 54 -12 88 0 97 34 131 120 122 29 -3 51 -12 63 -26z m237 16 c0 -12 -14
-15 -65 -15 l-65 0 0 -40 0 -40 55 0 c42 0 55 -3 55 -15 0 -9 -10 -15 -22 -16
-89 -4 -83 0 -86 -51 l-3 -48 65 0 c52 0 66 -3 66 -15 0 -12 -16 -15 -85 -15
l-85 0 -1 48 c0 26 -2 86 -2 134 l-2 88 88 0 c71 0 87 -3 87 -15z m90 -105 l0
-120 65 0 c53 0 63 -3 59 -15 -5 -12 -24 -15 -85 -15 l-79 0 0 135 c0 128 1
135 20 135 19 0 20 -7 20 -120z m212 3 l3 -118 63 -3 c44 -2 62 -7 59 -15 -2
-8 -33 -13 -85 -15 l-82 -3 0 136 c0 128 1 135 20 135 18 0 20 -8 22 -117z
m348 102 c0 -11 -16 -15 -67 -17 l-68 -3 0 -39 0 -40 58 3 c46 2 57 0 57 -13
0 -12 -11 -16 -37 -17 -82 -2 -78 0 -78 -49 l0 -45 68 -3 c51 -2 67 -6 67 -17
0 -12 -18 -15 -90 -15 l-90 0 0 135 0 135 90 0 c72 0 90 -3 90 -15z m197 -17
c21 -22 27 -39 31 -85 2 -32 -1 -70 -7 -85 -16 -43 -66 -68 -133 -68 l-58 0 0
136 0 136 70 -4 c60 -3 74 -8 97 -30z m-5237 -218 c0 -15 -7 -20 -25 -20 -18
0 -25 5 -25 20 0 15 7 20 25 20 18 0 25 -5 25 -20z"/>
<path d="M11142 13558 c-15 -15 -16 -152 -2 -179 12 -21 40 -25 58 -7 7 7 12
43 12 93 0 82 -9 105 -40 105 -9 0 -21 -5 -28 -12z"/>
<path d="M11690 13555 c-18 -22 -19 -157 -1 -178 18 -23 48 -21 61 2 14 27 13
164 -2 179 -17 17 -43 15 -58 -3z"/>
<path d="M14883 13498 c-7 -24 -15 -51 -18 -60 -6 -15 -1 -18 35 -18 35 0 41
3 36 16 -4 9 -11 36 -17 60 -6 24 -14 44 -18 44 -4 0 -12 -19 -18 -42z"/>
<path d="M16467 13563 c-2 -5 -4 -51 -3 -103 l1 -95 32 -3 c52 -5 73 25 73
103 0 52 -4 69 -20 85 -19 19 -74 28 -83 13z"/>
<path d="M10600 13082 c-62 -31 -70 -61 -70 -280 0 -159 3 -200 16 -228 33
-70 -245 -64 3149 -64 2730 0 3079 2 3105 15 55 28 60 53 60 283 0 200 -1 211
-22 237 -46 59 180 55 -3145 55 -2891 0 -3060 -1 -3093 -18z m3810 -272 l0
-190 -1165 0 -1165 0 0 190 0 190 1165 0 1165 0 0 -190z m-3430 25 l0 -135
-25 0 -25 0 0 115 0 115 -25 0 c-45 0 -30 28 18 33 23 2 45 4 50 5 4 1 7 -59
7 -133z m220 0 l0 -135 -25 0 -25 0 0 115 0 115 -25 0 c-45 0 -30 28 18 33 23
2 45 4 50 5 4 1 7 -59 7 -133z m363 104 c21 -27 22 -57 0 -81 -14 -16 -14 -20
-1 -35 54 -64 1 -134 -90 -120 -53 9 -89 67 -42 67 11 0 20 -7 20 -15 0 -16
42 -30 65 -21 40 15 24 86 -20 86 -16 0 -25 6 -25 15 0 8 9 15 19 15 29 0 53
28 45 54 -13 40 -45 47 -71 16 -16 -18 -53 -28 -53 -14 0 16 24 46 43 54 33
14 90 3 110 -21z m192 21 c39 -15 58 -71 52 -150 -4 -54 -9 -68 -32 -87 -16
-14 -39 -23 -58 -23 -61 1 -87 40 -87 132 0 72 14 107 50 125 30 15 41 16 75
3z m2959 -4 c22 -9 37 -24 44 -45 10 -29 10 -31 -14 -31 -14 0 -24 6 -24 14 0
42 -64 60 -94 27 -33 -36 -33 -143 0 -176 25 -25 72 -19 86 10 12 26 48 35 48
11 0 -51 -90 -82 -149 -52 -39 21 -51 50 -51 125 0 104 66 154 154 117z m254
-114 c23 -70 42 -131 42 -136 0 -4 -10 -6 -22 -4 -15 2 -24 11 -26 26 -2 12
-9 23 -15 23 -76 7 -92 4 -105 -23 -8 -17 -21 -28 -33 -28 -10 0 -19 3 -19 6
0 5 60 183 81 242 6 14 17 22 32 22 20 0 27 -13 65 -128z m192 29 l55 -95 3
97 c3 96 3 97 27 97 l25 0 0 -136 0 -135 -27 3 c-23 2 -35 17 -75 88 -26 46
-52 86 -57 88 -7 2 -11 -28 -11 -87 0 -84 -1 -91 -20 -91 -19 0 -20 7 -20 136
0 134 0 135 22 132 17 -2 38 -28 78 -97z m309 88 c32 -11 51 -35 51 -63 0 -24
-34 -19 -45 6 -6 13 -22 27 -38 32 -43 15 -70 -18 -74 -91 -5 -78 11 -107 60
-111 31 -3 39 1 49 22 13 30 48 35 48 8 0 -35 -38 -57 -97 -57 -48 0 -58 4
-79 28 -20 23 -24 39 -24 92 0 78 15 114 55 131 37 16 54 17 94 3z m271 -4 c0
-10 -16 -15 -62 -17 l-63 -3 0 -40 0 -40 53 -3 c37 -2 52 -7 52 -18 0 -10 -14
-14 -55 -14 l-55 0 0 -45 0 -45 65 0 c51 0 65 -3 65 -15 0 -12 -16 -15 -87
-15 l-88 0 3 135 3 135 85 0 c67 0 84 -3 84 -15z m90 -105 l0 -120 59 0 c43 0
60 -4 65 -15 4 -13 -8 -15 -79 -15 l-85 0 0 135 c0 128 1 135 20 135 19 0 20
-7 20 -120z m210 0 l0 -119 62 -3 c38 -2 63 -8 66 -15 3 -10 -18 -13 -82 -13
l-86 0 0 135 c0 128 1 135 20 135 19 0 20 -7 20 -120z m350 105 c0 -11 -16
-15 -67 -17 l-68 -3 0 -40 0 -40 58 -3 c41 -2 57 -7 57 -17 0 -10 -16 -15 -57
-17 l-58 -3 -3 -42 -3 -43 70 0 c56 0 71 -3 71 -15 0 -12 -17 -15 -90 -15
l-90 0 0 135 0 135 90 0 c72 0 90 -3 90 -15z m178 -5 c42 -26 55 -61 50 -133
-4 -46 -10 -63 -33 -87 -26 -28 -34 -30 -97 -30 l-68 0 0 135 0 135 58 0 c39
0 67 -6 90 -20z m-5218 -230 c0 -15 -7 -20 -25 -20 -18 0 -25 5 -25 20 0 15 7
20 25 20 18 0 25 -5 25 -20z"/>
<path d="M11692 12928 c-17 -22 -24 -75 -17 -133 6 -47 11 -56 31 -61 42 -11
54 11 54 93 0 41 -5 83 -10 94 -12 22 -43 25 -58 7z"/>
<path d="M14879 12848 c-7 -29 -11 -55 -11 -57 4 -9 67 -4 67 5 0 21 -28 104
-35 104 -5 0 -14 -24 -21 -52z"/>
<path d="M16466 12932 c-3 -5 -4 -51 -2 -103 l2 -94 36 -3 c50 -4 68 23 68
105 0 50 -4 67 -20 83 -20 20 -74 27 -84 12z"/>
<path d="M10572 12406 l-37 -34 0 -226 0 -226 33 -32 32 -33 2345 -3 2346 -2
42 21 c23 12 61 35 84 51 56 38 90 43 156 24 30 -9 64 -16 75 -16 46 0 171
-181 172 -250 1 -23 2 -23 12 -6 6 11 9 50 6 97 -7 115 -49 169 -133 169 -19
0 -35 5 -35 11 0 6 27 38 60 70 l60 59 0 130 c0 123 1 130 20 130 19 0 20 -7
20 -120 l0 -120 55 0 c48 0 59 -4 81 -27 37 -42 51 -73 57 -128 3 -28 11 -62
17 -75 l11 -25 370 5 371 5 34 38 35 38 -3 217 c-3 199 -5 219 -23 244 -11 15
-30 31 -43 37 -16 8 -939 11 -3103 11 l-3079 0 -38 -34z m3838 -233 l0 -188
-1165 0 -1165 0 0 188 0 187 1165 0 1165 0 0 -187z m-3430 32 l0 -135 -25 0
-25 0 0 115 0 115 -25 0 c-15 0 -25 6 -25 14 0 18 15 24 63 25 l37 1 0 -135z
m250 115 c36 -36 27 -81 -30 -147 -27 -32 -50 -61 -50 -65 0 -5 25 -8 55 -8
43 0 55 -3 55 -15 0 -13 -14 -15 -87 -13 -50 2 -88 7 -90 14 -2 6 24 41 57 79
33 38 63 79 66 92 13 50 -58 77 -76 29 -11 -29 -50 -32 -50 -5 0 51 110 79
150 39z m328 0 c28 -26 28 -60 2 -91 l-21 -23 21 -8 c15 -6 20 -16 20 -46 0
-53 -28 -77 -87 -77 -37 0 -49 5 -71 30 -25 29 -25 30 -4 33 11 2 30 -6 41
-17 25 -25 44 -26 65 -5 33 32 14 84 -31 84 -14 0 -23 6 -23 15 0 9 9 15 25
15 30 0 46 27 34 58 -11 28 -54 30 -71 2 -15 -23 -48 -27 -48 -5 0 28 42 55
85 55 28 0 48 -7 63 -20z m220 -3 c40 -43 41 -172 1 -218 -27 -32 -90 -32
-121 -1 -17 17 -23 36 -26 87 -2 35 -1 76 2 89 16 64 101 89 144 43z m2956 2
c31 -24 36 -69 8 -69 -10 0 -22 12 -29 30 -10 25 -17 30 -46 30 -46 0 -60 -20
-64 -88 -5 -70 22 -122 61 -122 27 0 56 24 56 45 0 8 9 13 20 12 42 -3 16 -60
-35 -77 -47 -16 -89 -5 -120 32 -21 25 -25 40 -25 91 0 34 6 73 13 87 26 51
113 67 161 29z m235 -106 c23 -69 41 -130 41 -135 0 -4 -9 -8 -19 -8 -12 0
-23 11 -30 31 -10 29 -12 30 -63 27 -46 -3 -53 -6 -58 -28 -4 -16 -14 -26 -28
-28 -12 -2 -22 0 -22 4 0 5 19 66 42 136 41 122 44 128 70 128 26 0 29 -5 67
-127z m179 55 c70 -127 71 -127 72 -20 0 92 0 92 25 92 l26 0 -3 -132 c-3
-127 -4 -133 -24 -136 -17 -2 -28 8 -52 50 -68 123 -77 138 -84 138 -5 0 -8
-43 -8 -95 0 -88 -1 -95 -20 -95 -19 0 -20 7 -20 135 l0 135 24 0 c20 0 32
-14 64 -72z m346 51 c14 -11 26 -29 26 -40 0 -28 -35 -24 -48 6 -9 20 -19 25
-46 25 -18 0 -38 -6 -44 -13 -16 -19 -25 -90 -18 -132 12 -64 83 -84 108 -30
14 30 48 29 48 -2 0 -47 -85 -76 -143 -48 -44 21 -57 50 -57 131 0 59 3 68 29
95 37 37 104 41 145 8z m246 6 c0 -12 -14 -15 -65 -15 l-65 0 0 -40 0 -40 55
0 c42 0 55 -3 55 -15 0 -12 -13 -15 -56 -15 l-55 0 3 -47 3 -48 63 -3 c47 -2
62 -7 62 -18 0 -12 -15 -14 -86 -12 l-85 3 0 90 c0 50 0 109 0 133 l1 42 85 0
c69 0 85 -3 85 -15z m302 -102 l3 -118 63 -3 c44 -2 62 -7 59 -15 -2 -8 -33
-13 -85 -15 l-82 -3 0 136 c0 128 1 135 20 135 18 0 20 -8 22 -117z m346 105
c-3 -8 -30 -15 -69 -18 l-64 -5 -2 -37 -2 -38 59 0 c46 0 60 -3 60 -15 0 -10
-15 -15 -57 -17 l-58 -3 0 -45 1 -45 68 -3 c47 -2 66 -7 63 -15 -2 -8 -34 -13
-90 -15 l-87 -3 0 136 0 135 91 0 c68 0 90 -3 87 -12z m174 1 c13 -5 31 -24
41 -40 20 -36 23 -122 4 -159 -17 -35 -73 -60 -134 -60 l-53 0 0 135 0 135 60
0 c32 0 69 -5 82 -11z m-5214 -236 c-2 -10 -12 -18 -23 -18 -11 0 -21 8 -23
18 -3 13 3 17 23 17 20 0 26 -4 23 -17z"/>
<path d="M11684 12288 c-11 -33 -5 -160 8 -175 16 -19 46 -16 58 6 14 27 13
164 -2 179 -20 20 -56 14 -64 -10z"/>
<path d="M14878 12225 c-8 -30 -13 -57 -10 -60 3 -3 17 -5 32 -5 15 0 29 2 32
5 7 7 -23 115 -32 115 -4 0 -14 -25 -22 -55z"/>
<path d="M16467 12305 c-3 -5 -4 -53 -3 -105 l1 -95 32 -3 c51 -5 73 25 73
101 0 76 -16 103 -64 109 -20 2 -37 -1 -39 -7z"/>
<path d="M17062 11970 c0 -14 2 -19 5 -12 2 6 2 18 0 25 -3 6 -5 1 -5 -13z"/>
<path d="M9723 11805 c-124 -35 -240 -103 -270 -159 -14 -27 -13 -32 18 -92
27 -55 36 -64 59 -64 15 0 42 11 61 25 129 94 275 166 368 181 23 4 44 10 46
14 8 12 -49 65 -90 84 -50 24 -130 29 -192 11z"/>
<path d="M16040 11730 c0 -10 -9 -43 -20 -71 -12 -29 -17 -56 -12 -61 4 -4
244 -7 533 -6 l524 3 3 78 3 77 -516 0 c-505 0 -515 0 -515 -20z"/>
<path d="M9862 11532 c-7 -5 7 -13 40 -22 51 -13 52 -14 26 -22 -34 -12 -37
-31 -4 -22 13 3 34 1 45 -6 16 -8 21 -8 21 1 0 8 4 8 15 -1 20 -17 26 -10 32
39 l6 41 -84 0 c-46 0 -90 -4 -97 -8z"/>
<path d="M9570 11433 c-44 -4 -62 -11 -98 -40 -23 -19 -93 -64 -155 -100 -62
-35 -134 -86 -160 -111 -85 -84 -121 -193 -98 -304 26 -124 60 -116 126 30 57
124 123 238 161 275 41 41 93 53 148 35 l45 -15 15 36 c8 20 21 45 30 56 14
18 15 18 16 2 0 -38 77 -157 101 -157 5 0 9 14 9 31 0 23 -12 45 -50 86 -27
30 -50 60 -50 66 0 7 14 32 30 57 36 54 37 61 8 58 -13 -1 -48 -3 -78 -5z"/>
<path d="M9910 11425 c0 -8 5 -15 10 -15 6 0 10 7 10 15 0 8 -4 15 -10 15 -5
0 -10 -7 -10 -15z"/>
<path d="M9957 11413 c-4 -3 -7 -27 -7 -52 0 -35 -6 -51 -27 -73 l-27 -28 47
0 c46 0 48 1 43 28 -2 15 -5 51 -5 80 -1 48 -8 62 -24 45z"/>
<path d="M15210 11395 c0 -10 10 -15 34 -15 38 0 55 14 30 24 -29 11 -64 6
-64 -9z"/>
<path d="M15860 11394 c-109 -36 -114 -42 -48 -64 48 -15 176 -98 251 -162 31
-28 57 -46 57 -41 0 4 -48 64 -105 132 -58 69 -105 128 -105 133 0 9 -26 9
-50 2z"/>
<path d="M15270 11336 c0 -7 7 -19 15 -26 13 -11 15 -8 15 14 0 16 -5 26 -15
26 -8 0 -15 -6 -15 -14z"/>
<path d="M15382 11279 c-46 -4 -90 -13 -98 -20 -21 -17 -17 -72 8 -104 25 -32
173 -105 229 -112 48 -7 69 9 69 49 0 27 -2 29 -17 17 -15 -13 -16 -11 -10 17
5 25 -1 43 -30 89 -20 32 -39 53 -41 47 -2 -7 -11 -12 -20 -12 -12 0 -13 3 -4
12 13 13 16 29 5 27 -5 -1 -45 -5 -91 -10z"/>
<path d="M12438 11234 c-17 -16 -6 -20 45 -16 63 5 82 -10 72 -58 -7 -34 -22
-44 -77 -54 -27 -5 -38 -12 -38 -25 0 -11 -15 -25 -41 -36 -22 -10 -66 -44
-97 -75 -71 -69 -124 -111 -182 -141 -32 -16 -40 -24 -28 -27 10 -2 32 3 48
12 28 13 31 13 40 -4 5 -10 17 -49 26 -87 33 -143 -15 -275 -125 -345 -45 -28
-104 -37 -116 -18 -13 21 -25 8 -25 -28 0 -47 14 -62 60 -62 69 0 167 82 212
178 31 63 33 235 4 329 -17 57 -18 63 -2 78 15 15 16 15 16 -7 1 -66 60 -138
144 -172 23 -10 36 -21 33 -29 -4 -12 -19 -83 -31 -156 -6 -32 -5 -33 22 -25
15 4 95 8 177 9 l150 0 85 38 c112 51 122 54 114 33 -5 -12 0 -15 20 -14 14 1
26 9 26 16 0 10 7 12 27 8 17 -5 29 -3 35 6 6 10 11 9 19 -5 10 -17 15 -14 45
32 19 27 34 53 34 56 0 11 -105 4 -164 -11 -70 -18 -174 -65 -266 -118 l-64
-38 -18 24 c-11 13 -32 50 -47 83 -31 67 -79 121 -114 128 -19 3 -17 5 11 12
45 11 40 20 -12 21 -28 1 -67 12 -103 30 -46 23 -63 38 -81 74 l-23 45 59 55
c55 51 94 74 213 130 25 11 52 31 59 44 8 17 18 22 33 18 14 -3 18 -1 13 6 -4
7 -14 12 -22 12 -8 0 -14 8 -14 18 0 32 -36 55 -93 60 -28 2 -55 0 -59 -4z"/>
<path d="M2454 11123 c13 -44 58 -233 66 -278 4 -27 16 -83 26 -123 l19 -74
165 7 c156 7 192 12 163 22 -7 3 -13 8 -13 13 0 7 -59 100 -117 185 -15 22
-54 83 -87 135 -84 135 -78 130 -158 130 -61 0 -69 -2 -64 -17z"/>
<path d="M12595 11090 c-3 -6 1 -13 10 -16 19 -8 30 0 20 15 -8 14 -22 14 -30
1z"/>
<path d="M16135 11059 c-60 -13 -215 -72 -215 -81 0 -15 53 -8 143 21 51 16
105 32 120 36 16 3 27 11 24 18 -5 16 -23 17 -72 6z"/>
<path d="M12490 11029 c0 -5 5 -7 10 -4 6 3 10 8 10 11 0 2 -4 4 -10 4 -5 0
-10 -5 -10 -11z"/>
<path d="M9331 10920 c-2 -170 73 -325 203 -421 36 -27 86 -39 86 -21 0 4 -25
35 -55 70 -125 144 -189 254 -216 372 l-17 75 -1 -75z"/>
<path d="M12742 10926 c-6 -22 -10 -41 -8 -43 7 -7 28 56 23 69 -2 7 -9 -5
-15 -26z"/>
<path d="M15717 10875 c-19 -19 -21 -24 -46 -160 -24 -132 -41 -272 -41 -337
0 -53 6 -50 -90 -50 -50 0 -55 -7 -26 -37 31 -32 63 -103 72 -158 8 -50 -8
-190 -41 -374 -28 -155 -52 -375 -42 -386 16 -16 27 18 41 133 8 67 27 190 41
274 49 286 48 389 -6 476 l-20 33 48 3 48 3 12 135 c12 141 34 282 60 388 16
69 14 82 -10 57z"/>
<path d="M12280 10872 c0 -13 52 -57 84 -70 46 -20 42 -6 -7 23 -25 14 -48 32
-51 40 -6 16 -26 21 -26 7z"/>
<path d="M15724 10593 c3 -10 10 -38 16 -63 37 -142 124 -300 300 -540 157
-216 248 -371 280 -477 17 -55 34 -44 26 16 -3 25 -8 75 -12 111 -3 35 -8 69
-11 75 -2 5 5 -1 17 -15 27 -32 -38 102 -88 180 -68 108 -248 355 -312 429
-107 124 -150 182 -181 243 -28 56 -46 76 -35 41z"/>
<path d="M2517 10579 c-84 -7 -107 -13 -95 -24 12 -13 180 -27 335 -28 154 -2
174 0 190 16 17 18 17 19 -1 33 -16 11 -55 14 -180 13 -89 -1 -201 -5 -249
-10z"/>
<path d="M12920 10500 c0 -5 5 -10 10 -10 6 0 10 5 10 10 0 6 -4 10 -10 10 -5
0 -10 -4 -10 -10z"/>
<path d="M12920 10448 c0 -38 21 -82 32 -66 13 21 9 44 -12 69 l-19 24 -1 -27z"/>
<path d="M13071 10430 c-1 -3 -3 -22 -5 -43 -4 -50 -32 -80 -68 -73 -31 6 -36
-5 -13 -24 42 -35 99 28 92 103 -2 23 -5 40 -6 37z"/>
<path d="M9712 10333 c-11 -10 -30 -36 -41 -58 l-21 -40 87 -3 c49 -2 98 0
111 3 22 5 18 10 -43 60 -37 30 -68 55 -70 55 -1 0 -12 -8 -23 -17z"/>
<path d="M13280 10331 c0 -5 4 -21 10 -35 12 -33 -2 -72 -38 -103 -32 -27
-115 -32 -148 -8 -12 8 -24 12 -27 9 -2 -3 7 -37 21 -77 22 -61 26 -89 27
-187 l0 -115 -70 -67 c-137 -132 -182 -136 -304 -24 -81 75 -182 136 -222 136
-13 -1 -37 -7 -53 -13 l-29 -13 44 -13 c128 -38 272 -146 330 -248 l32 -55 49
6 c59 8 134 40 205 88 l51 36 25 -57 c36 -83 50 -158 45 -242 -3 -41 -7 -81
-9 -89 -3 -13 19 -15 156 -15 l160 0 5 200 c6 223 10 241 77 292 32 24 47 28
127 33 l91 5 3 55 c5 90 6 90 217 90 208 0 202 3 207 -95 l3 -50 50 0 50 0 3
283 2 282 -399 0 -399 0 -25 -43 c-63 -106 -91 -229 -102 -437 -16 -316 -55
-457 -156 -574 -40 -46 -41 -28 0 27 89 119 122 235 136 472 15 270 36 391 86
484 16 30 29 58 29 63 0 4 -58 8 -130 8 -74 0 -130 -4 -130 -9z"/>
<path d="M14388 10173 c-1 -93 -2 -220 -2 -283 l-1 -115 40 -6 c22 -3 47 -9
55 -13 11 -4 19 2 27 24 17 45 48 52 221 48 148 -3 155 -4 173 -27 14 -17 19
-39 19 -87 l0 -64 87 0 c166 0 218 -53 211 -216 -2 -46 -1 -84 3 -84 4 0 21
22 38 49 l32 49 -15 54 c-19 65 -33 178 -41 323 -12 227 -34 334 -90 445 l-35
70 -360 0 -360 0 -2 -167z"/>
<path d="M15130 10334 c0 -3 9 -19 21 -35 48 -67 84 -223 94 -399 13 -239 37
-409 60 -413 6 -1 47 72 92 163 l81 165 -18 195 c-10 107 -20 224 -22 260 l-4
65 -152 3 c-84 1 -152 0 -152 -4z"/>
<path d="M16524 10318 c26 -58 116 -286 116 -295 0 -6 5 -15 11 -18 17 -11 -1
154 -23 205 -10 25 -35 62 -56 83 -36 37 -60 49 -48 25z"/>
<path d="M3342 10283 c-32 -6 -45 -35 -26 -61 11 -17 23 -21 53 -18 47 4 61
12 61 34 0 37 -36 55 -88 45z"/>
<path d="M2080 9849 c-16 -27 -20 -46 -17 -87 4 -59 25 -94 78 -130 44 -31
104 -27 279 17 135 33 452 132 446 138 -2 2 -154 22 -337 44 -184 21 -355 42
-381 45 -45 6 -48 5 -68 -27z"/>
<path d="M13884 9866 c-3 -8 -4 -31 -2 -52 l3 -39 168 -3 167 -2 0 55 0 55
-165 0 c-132 0 -167 -3 -171 -14z"/>
<path d="M8974 9765 c5 -95 25 -177 52 -210 16 -20 16 -20 9 0 -4 11 -20 83
-36 160 l-29 140 4 -90z"/>
<path d="M14552 9778 c-7 -7 -12 -38 -12 -70 l0 -58 170 0 170 0 0 58 c0 32
-5 63 -12 70 -8 8 -58 12 -158 12 -100 0 -150 -4 -158 -12z"/>
<path d="M9300 9763 c-117 -4 -139 -8 -123 -24 7 -7 61 -11 145 -10 148 2 178
7 178 27 0 10 -13 13 -47 12 -27 -1 -95 -4 -153 -5z"/>
<path d="M14123 9695 c-3 -9 -3 -35 0 -57 l6 -42 -23 28 c-41 52 -159 46 -185
-10 -16 -35 -16 -1043 1 -1078 12 -29 24 -34 88 -40 46 -5 99 15 102 37 0 6 4
-10 7 -38 l6 -50 45 -3 45 -3 -2 548 -3 548 23 40 c32 58 73 75 180 75 l87 0
0 30 0 30 -185 0 c-158 0 -187 -2 -192 -15z m-43 -94 c6 -13 10 -197 10 -530
0 -573 4 -541 -74 -541 -81 0 -77 -30 -74 547 2 414 6 513 17 526 20 25 107
23 121 -2z"/>
<path d="M16764 9658 c4 -13 25 -95 47 -183 22 -88 45 -178 51 -199 l10 -39
114 6 114 5 0 -29 c0 -33 5 -31 -132 -29 -43 1 -78 -2 -78 -7 0 -4 14 -70 32
-145 l32 -138 358 0 c197 0 358 2 358 5 0 3 -27 43 -61 88 -33 45 -99 135
-147 200 -48 65 -148 200 -222 300 l-135 182 -174 3 -173 2 6 -22z"/>
<path d="M13725 9649 c-46 -26 -45 -15 -45 -574 0 -521 0 -532 20 -553 12 -12
26 -22 33 -23 7 0 23 -2 37 -4 40 -6 79 5 100 28 19 20 20 39 20 553 0 612 6
571 -90 580 -33 3 -63 0 -75 -7z m125 -53 c13 -36 13 -1021 0 -1046 -8 -16
-21 -20 -60 -20 -86 0 -80 -36 -80 542 1 321 4 518 11 529 8 15 21 19 65 19
49 0 55 -3 64 -24z"/>
<path d="M14320 9561 c-6 -13 -10 -211 -10 -575 0 -491 2 -556 16 -570 8 -9
21 -16 27 -16 9 0 9 -2 1 -8 -23 -15 -35 -53 -28 -87 8 -45 46 -75 94 -75 74
0 114 69 79 134 l-19 36 28 0 c63 0 61 -20 62 592 0 495 -1 558 -16 572 -12
13 -38 16 -119 16 -93 0 -105 -2 -115 -19z"/>
<path d="M14612 9568 c-9 -9 -12 -151 -12 -580 0 -551 1 -568 19 -578 28 -14
204 -13 219 2 8 8 12 56 12 151 0 138 0 139 -26 160 -22 17 -25 26 -21 55 4
19 15 51 25 71 22 43 35 101 22 101 -5 0 -21 -5 -36 -10 -27 -11 -64 -5 -64 9
0 5 23 24 51 44 l51 36 0 267 c-1 208 -4 269 -14 275 -21 14 -212 11 -226 -3z"/>
<path d="M14902 9568 c-9 -9 -12 -82 -12 -265 0 -139 1 -253 3 -253 2 0 25 11
53 24 l49 24 33 -31 c18 -18 44 -55 59 -84 25 -52 25 -54 8 -80 -10 -16 -60
-70 -112 -121 l-94 -92 3 -138 3 -137 31 -10 c30 -10 30 -10 12 -29 -27 -29
-24 -87 7 -120 48 -51 145 -25 160 45 7 33 -10 89 -29 90 -6 0 5 5 24 12 l35
12 3 274 c1 174 6 279 13 287 15 19 0 42 -72 108 l-62 57 24 17 c13 9 41 33
63 53 l39 37 -2 153 c-1 91 -7 159 -13 166 -14 17 -209 18 -226 1z"/>
<path d="M10561 9401 c-10 -22 -10 -39 -1 -72 9 -33 11 -231 5 -811 -7 -709
-6 -768 9 -768 15 0 16 65 16 815 -1 536 2 821 9 833 6 11 7 22 4 26 -14 14
-31 4 -42 -23z"/>
<path d="M10865 9420 c-8 -12 -7 -1662 0 -1669 3 -2 8 -1 13 3 4 4 8 375 10
824 1 449 5 818 7 821 3 2 5 10 5 18 0 15 -26 18 -35 3z"/>
<path d="M11065 9390 c-3 -6 3 -23 14 -39 12 -16 21 -34 21 -40 0 -6 7 -11 15
-11 21 0 19 27 -6 66 -21 35 -33 41 -44 24z"/>
<path d="M12855 9379 c-5 -13 -23 -97 -29 -129 -1 -9 -5 -21 -10 -28 -4 -6 -3
-12 1 -12 5 0 18 -6 28 -14 18 -13 17 -15 -18 -58 -39 -47 -57 -109 -57 -194
l0 -44 45 0 c42 0 45 -2 46 -27 0 -16 4 -37 8 -48 6 -14 9 -5 14 34 3 29 25
107 48 174 47 140 49 197 6 270 -34 57 -75 95 -82 76z"/>
<path d="M2797 9269 c-53 -50 -97 -94 -97 -99 0 -8 132 -80 148 -80 6 0 26 21
45 48 19 26 56 73 81 104 l45 57 -57 27 c-31 16 -59 29 -63 31 -3 2 -49 -38
-102 -88z"/>
<path d="M15589 9344 c-9 -11 -2 -18 37 -36 118 -52 273 -76 407 -63 64 6 77
10 77 24 0 16 -11 18 -122 14 -136 -5 -223 8 -327 50 -51 21 -62 22 -72 11z"/>
<path d="M2982 9185 c-39 -51 -75 -100 -78 -109 -4 -11 17 -22 92 -46 101 -32
187 -53 260 -64 l42 -6 42 120 c24 67 40 123 38 126 -3 2 -44 11 -92 20 -48 8
-115 24 -149 34 -34 11 -66 20 -72 19 -5 0 -43 -42 -83 -94z"/>
<path d="M11110 8550 c0 -624 2 -710 15 -710 13 0 15 86 15 710 0 624 -2 710
-15 710 -13 0 -15 -86 -15 -710z"/>
<path d="M3424 9195 c-1 -5 -20 -61 -42 -122 -21 -62 -37 -115 -34 -118 11
-10 268 -4 302 8 43 15 60 47 60 115 0 62 -21 110 -53 117 -46 10 -230 10
-233 0z"/>
<path d="M11770 9048 l-192 -143 447 -3 c247 -1 450 -1 451 1 6 5 -55 214 -72
251 l-17 35 -212 1 -212 1 -193 -143z"/>
<path d="M13186 9158 c-8 -18 -30 -84 -49 -145 l-35 -113 216 0 217 0 -1 143
-1 142 -167 3 -167 2 -13 -32z"/>
<path d="M15415 9144 c-22 -20 -75 -60 -117 -90 l-78 -56 0 -49 0 -49 139 0
c157 0 151 -3 151 81 0 43 -33 173 -49 191 -3 3 -24 -9 -46 -28z"/>
<path d="M16560 8929 l-55 -28 72 -1 c66 0 71 1 66 20 -10 37 -26 39 -83 9z"/>
<path d="M16460 8885 c-19 -8 -87 -34 -150 -58 -147 -57 -343 -120 -490 -157
-124 -31 -340 -74 -344 -68 -2 1 0 30 4 63 4 33 6 61 5 62 -1 2 -29 -54 -63
-125 -33 -70 -99 -207 -146 -304 -140 -290 -233 -522 -291 -723 -24 -83 -24
-91 -9 -102 15 -11 12 -27 -39 -190 -31 -98 -77 -253 -101 -345 -102 -377
-184 -536 -334 -647 -72 -54 -141 -78 -319 -112 -178 -33 -208 -44 -208 -79 0
-53 173 -127 320 -136 44 -3 102 -10 129 -16 47 -10 48 -11 42 -42 -3 -17 -8
-40 -11 -51 -4 -15 2 -24 23 -36 27 -15 29 -15 66 17 21 18 50 36 65 39 15 3
43 18 61 33 28 24 36 42 60 139 51 200 125 339 405 758 106 160 211 324 233
365 45 84 36 81 157 55 140 -28 341 -21 530 20 31 7 32 5 147 -167 145 -216
304 -427 523 -692 94 -114 181 -227 194 -251 17 -33 25 -68 29 -130 6 -111
-11 -153 -80 -195 -79 -49 -57 -85 51 -85 76 1 106 14 198 87 81 64 104 111
96 196 -6 65 -4 69 28 52 16 -9 21 -7 30 17 8 22 5 38 -16 89 -33 78 -54 96
-138 124 -54 17 -73 29 -88 54 -53 85 -206 413 -274 586 -84 213 -147 346
-218 456 l-45 71 21 22 c12 12 16 21 9 21 -21 0 -100 118 -121 182 -33 101
-44 207 -32 317 10 92 24 156 90 431 39 159 56 314 45 401 l-9 67 -35 -13z
m41 -1600 c48 -67 94 -145 85 -145 -2 0 -18 24 -34 53 -16 28 -52 82 -79 118
-27 36 -53 72 -57 80 -13 23 32 -32 85 -106z m-1250 -52 c-12 -20 -14 -14 -5
12 4 9 9 14 11 11 3 -2 0 -13 -6 -23z m-30 -70 c-12 -20 -14 -14 -5 12 4 9 9
14 11 11 3 -2 0 -13 -6 -23z m-20 -46 c-10 -9 -11 -8 -5 6 3 10 9 15 12 12 3
-3 0 -11 -7 -18z m1407 -12 c-3 -3 -9 2 -12 12 -6 14 -5 15 5 6 7 -7 10 -15 7
-18z m-1447 -68 c-10 -9 -11 -8 -5 6 3 10 9 15 12 12 3 -3 0 -11 -7 -18z m-52
-101 c-12 -20 -23 -35 -26 -32 -2 2 6 20 19 39 30 46 35 40 7 -7z m1640 -141
c-1 -13 -57 107 -57 120 0 6 13 -17 28 -50 16 -33 29 -64 29 -70z m-1691 55
c-13 -22 -33 -53 -46 -68 -12 -15 -4 3 19 41 45 73 64 92 27 27z m1731 -145
c0 -5 -8 6 -19 25 -11 19 -19 40 -19 45 0 6 8 -6 19 -25 11 -19 19 -39 19 -45z
m-1806 32 c-26 -41 -66 -97 -70 -97 -6 0 4 16 40 68 28 38 49 60 30 29z m1866
-162 c0 -5 -13 15 -29 45 -16 30 -29 60 -29 65 0 6 13 -15 29 -45 16 -30 29
-59 29 -65z m-1948 38 c-5 -10 -17 -27 -26 -38 -16 -19 -17 -19 -3 5 26 46 29
50 34 50 3 0 0 -8 -5 -17z m-82 -140 c-45 -83 -57 -101 -45 -68 11 29 76 145
82 145 3 0 -14 -35 -37 -77z m2092 -10 c18 -32 48 -79 66 -105 19 -27 32 -48
30 -48 -8 0 -71 91 -106 153 -18 31 -30 57 -27 57 2 0 19 -26 37 -57z m-2160
-130 c-11 -21 -20 -35 -21 -31 0 12 33 78 38 74 2 -2 -6 -21 -17 -43z m-50
-120 c-12 -20 -14 -14 -5 12 4 9 9 14 11 11 3 -2 0 -13 -6 -23z"/>
<path d="M11231 8864 c0 -11 3 -14 6 -6 3 7 2 16 -1 19 -3 4 -6 -2 -5 -13z"/>
<path d="M11232 8820 c0 -14 2 -19 5 -12 2 6 2 18 0 25 -3 6 -5 1 -5 -13z"/>
<path d="M11233 8715 c0 -38 2 -53 4 -32 2 20 2 52 0 70 -2 17 -4 1 -4 -38z"/>
<path d="M16910 8756 c-84 -31 -140 -66 -140 -87 0 -16 4 -19 18 -14 9 4 53
18 97 32 44 14 81 27 83 28 5 5 -10 55 -17 54 -3 0 -22 -6 -41 -13z"/>
<path d="M13015 8665 c-16 -7 -51 -16 -77 -20 -27 -4 -50 -10 -52 -14 -3 -3
-1 -22 3 -41 6 -31 11 -35 46 -41 23 -4 45 -3 53 4 9 7 20 6 38 -2 14 -6 72
-11 129 -11 103 0 105 0 105 23 0 21 -8 25 -55 36 -30 7 -78 28 -106 47 -28
19 -52 34 -53 33 0 0 -14 -7 -31 -14z"/>
<path d="M16971 8444 l-34 -34 21 -52 c11 -29 35 -89 54 -132 27 -66 30 -80
18 -84 -8 -3 -30 -20 -47 -38 -51 -50 -46 -79 56 -352 525 -1398 682 -1813
692 -1830 18 -29 62 -52 100 -52 18 0 220 70 448 156 312 116 423 162 444 183
59 58 62 45 -191 721 -525 1398 -550 1464 -577 1487 -56 49 -67 47 -452 -98
-196 -74 -359 -135 -363 -137 -7 -3 -120 259 -120 277 0 22 -17 17 -49 -15z
m838 -141 c12 -10 32 -47 45 -83 13 -36 80 -218 150 -405 70 -187 172 -461
227 -610 55 -148 107 -286 114 -305 79 -197 225 -608 225 -633 -1 -50 -40 -87
-93 -87 -48 0 -72 33 -121 172 -27 73 -52 142 -57 153 -5 11 -65 173 -134 360
-70 187 -176 473 -237 635 -60 162 -112 302 -114 310 -2 8 -38 105 -79 215
-81 211 -83 229 -43 273 26 27 86 30 117 5z m-258 -188 c25 -64 123 -326 384
-1030 53 -143 117 -316 141 -385 25 -69 51 -141 59 -160 59 -145 135 -360 135
-383 0 -39 -49 -87 -88 -87 -32 0 -92 42 -92 65 0 7 -9 34 -20 61 -10 27 -49
130 -86 229 -180 488 -269 729 -306 825 -21 58 -52 141 -68 185 -16 44 -40
109 -53 145 -14 36 -50 133 -80 215 -31 83 -70 186 -86 230 -17 44 -31 92 -31
106 0 33 42 77 78 81 51 7 83 -21 113 -97z m-341 -44 c17 -23 26 -46 465
-1231 234 -633 285 -775 285 -801 0 -69 -91 -104 -144 -56 -18 16 -62 123
-166 402 -78 209 -154 414 -170 455 -15 41 -70 188 -120 325 -50 138 -122 331
-160 430 -169 450 -168 442 -112 486 34 26 98 21 122 -10z"/>
<path d="M17723 8300 c-24 -10 -43 -39 -43 -66 0 -14 135 -389 185 -514 20
-50 214 -575 235 -635 31 -89 300 -809 315 -842 24 -53 93 -59 128 -11 l20 27
-27 78 c-15 43 -83 227 -151 408 -67 182 -170 458 -229 615 -292 787 -337 905
-357 927 -24 24 -40 27 -76 13z"/>
<path d="M17425 8190 c-29 -11 -48 -36 -47 -63 0 -12 70 -211 157 -442 86
-231 201 -539 255 -685 54 -146 151 -404 214 -575 66 -176 123 -316 133 -323
10 -7 34 -12 53 -10 26 2 38 10 52 35 l19 31 -87 234 c-47 128 -149 402 -226
608 -263 706 -326 875 -363 975 -79 213 -74 203 -107 214 -17 6 -31 11 -32 10
-1 0 -10 -4 -21 -9z"/>
<path d="M17121 8078 c-56 -20 -62 -58 -27 -150 24 -60 155 -412 266 -713 195
-528 271 -733 374 -1005 71 -189 85 -216 109 -228 37 -18 81 -1 96 37 10 23 3
51 -59 221 -95 260 -83 226 -209 565 -98 262 -276 739 -417 1120 -57 152 -77
174 -133 153z"/>
<path d="M7372 8438 c-13 -13 -17 -68 -4 -68 17 0 32 25 32 52 0 30 -9 35 -28
16z"/>
<path d="M13710 8427 c0 -37 44 -72 90 -72 46 0 90 35 90 72 0 22 -2 23 -90
23 -88 0 -90 -1 -90 -23z"/>
<path d="M16714 8439 c-18 -22 -27 -60 -25 -104 0 -25 85 -258 227 -630 125
-324 336 -875 470 -1224 134 -349 255 -651 268 -672 14 -21 44 -46 68 -58 70
-34 117 -28 279 34 79 30 146 55 149 55 3 0 4 -16 2 -36 -9 -77 53 -169 132
-194 158 -51 299 116 225 265 -13 26 -32 53 -43 61 -11 7 -18 15 -15 17 2 2
59 26 126 52 67 26 128 53 134 61 14 17 -2 61 -25 70 -8 3 -81 -20 -163 -51
-745 -286 -733 -283 -783 -230 -19 21 -98 218 -420 1060 -241 630 -373 973
-456 1188 -46 119 -84 230 -84 247 0 21 -4 28 -14 24 -16 -6 -27 8 -35 49 -5
24 -9 27 -17 16z"/>
<path d="M9494 5956 c-3 -9 11 -48 31 -88 142 -274 204 -389 373 -683 118
-206 122 -205 48 11 -91 268 -151 404 -240 542 -54 85 -136 184 -176 212 -26
18 -31 19 -36 6z"/>
<path d="M9932 3665 c5 -173 18 -213 76 -241 48 -23 104 -20 200 11 75 24 97
38 73 47 -6 2 -52 43 -103 93 -51 49 -128 123 -171 165 l-79 75 4 -150z"/>
<path d="M10903 3662 c114 -158 142 -192 156 -192 24 0 114 44 130 64 21 25
-2 61 -55 85 -43 21 -257 101 -267 101 -4 0 13 -26 36 -58z"/>
<path d="M10965 3350 c-32 -44 -94 -116 -137 -160 -43 -43 -78 -84 -78 -90 0
-17 59 -130 105 -200 23 -36 67 -89 98 -119 l55 -54 119 -4 c124 -4 191 -14
308 -44 133 -34 240 -50 337 -50 103 0 261 23 312 46 78 33 146 108 146 160 0
42 -43 97 -100 129 -59 33 -320 121 -568 192 -254 73 -330 110 -462 225 -31
27 -61 49 -66 49 -6 0 -36 -36 -69 -80z m234 -86 c25 -15 75 -45 111 -67 36
-23 66 -42 68 -43 1 0 -13 -25 -33 -53 -19 -29 -43 -75 -52 -102 -10 -27 -23
-49 -29 -49 -40 0 -179 141 -209 213 -20 49 -19 69 6 101 27 35 77 35 138 0z"/>
<path d="M6337 3064 c-69 -16 -105 -34 -133 -66 -38 -42 -38 -58 4 -97 47 -45
113 -67 238 -82 215 -26 454 44 454 131 0 12 -12 34 -28 49 -29 30 -127 71
-167 71 -23 0 -25 -4 -25 -48 0 -75 -24 -92 -127 -92 -76 0 -83 2 -102 26 -15
19 -21 41 -21 75 0 56 0 56 -93 33z"/>
</g>
</svg>
